<svg width="427" height="117" viewBox="0 0 427 117" fill="none" xmlns="http://www.w3.org/2000/svg">
<path d="M0 76V0.479996H3.84V76H0ZM7.68 76V0.479996H11.52V76H7.68ZM15.36 76V0.479996H26.88V76H15.36ZM30.72 76V0.479996H34.56V76H30.72ZM46.08 76V0.479996H57.6V76H46.08ZM21.248 87.136H24.448L36.864 109.152V87.136H40.576V87.52C40.32 87.6907 40.192 87.904 40.192 88.16C40.1067 88.3307 40.064 88.7147 40.064 89.312V116.832H37.504L24.32 93.536V116.832H21.248V87.136ZM61.5 76V0.479996H73.02V76H61.5ZM76.86 76V0.479996H80.7V76H76.86ZM84.54 76V0.479996H96.06V76H84.54ZM107.58 76V0.479996H111.42V76H107.58ZM115.26 76V0.479996H119.1V76H115.26ZM83.132 87.136H101.308V90.08H86.204V99.808H98.748V102.88H86.204V113.888H101.18V116.832H83.132V87.136ZM123 76V0.479996H126.84V76H123ZM130.68 76V0.479996H134.52V76H130.68ZM138.36 76V0.479996H149.88V76H138.36ZM153.72 76V0.479996H165.24V76H153.72ZM176.76 76V0.479996H180.6V76H176.76ZM151.672 90.08H143.352V87.136H163.832V90.08H155.128V116.832H151.672V90.08ZM184.5 76V0.479996H188.34V76H184.5ZM192.18 76V0.479996H203.7V76H192.18ZM207.54 76V0.479996H219.06V76H207.54ZM230.58 76V0.479996H234.42V76H230.58ZM238.26 76V0.479996H242.1V76H238.26ZM207.028 87.136H224.052V90.08H210.356V99.424H221.492V102.24H210.356V116.832H207.028V87.136ZM246 76V0.479996H249.84V76H246ZM253.68 76V0.479996H265.2V76H253.68ZM269.04 76V0.479996H272.88V76H269.04ZM276.72 76V0.479996H280.56V76H276.72ZM292.08 76V0.479996H303.6V76H292.08ZM268.016 87.136H271.856V87.52C271.685 87.6907 271.557 87.904 271.472 88.16C271.472 88.3307 271.472 88.7147 271.472 89.312V114.016H285.68V116.832H268.016V87.136ZM307.5 76V0.479996H311.34V76H307.5ZM315.18 76V0.479996H326.7V76H315.18ZM330.54 76V0.479996H334.38V76H330.54ZM345.9 76V0.479996H357.42V76H345.9ZM361.26 76V0.479996H365.1V76H361.26ZM330.156 114.016H336.044V89.952H330.54V87.136H345.26V89.952H339.372V114.016H345.516V116.832H330.156V114.016ZM369 76V0.479996H372.84V76H369ZM384.36 76V0.479996H388.2V76H384.36ZM392.04 76V0.479996H403.56V76H392.04ZM407.4 76V0.479996H411.24V76H407.4ZM415.08 76V0.479996H426.6V76H415.08ZM397.8 101.728L389.864 87.136H393.448L399.72 98.4L405.864 87.136H409.192L401.64 101.6L410.088 116.832H406.376L399.72 105.056L393.32 116.832H389.736L397.8 101.728Z" fill="white"/>
</svg>
